<svg width="368" height="298" viewBox="0 0 368 298" fill="none" xmlns="http://www.w3.org/2000/svg">
<path d="M286.206 86.1656C276.523 54.3463 257.342 23.8777 231.342 2.74178C230.856 2.35229 230.273 2.10478 229.655 2.02666C229.038 1.94855 228.411 2.04288 227.844 2.29921L185.96 21.2261C148.549 14.2988 111.134 12.7979 75.0737 26.0868C74.4594 26.3146 73.9254 26.7174 73.5376 27.2454C73.1498 27.7734 72.9252 28.4035 72.8916 29.0578C72.3644 39.2986 70.1977 81.9323 70.1977 81.9323C45.2479 108.264 25.7437 141.399 21.0254 177.333C20.9502 177.942 21.0427 178.561 21.2929 179.121C21.5431 179.682 21.9417 180.164 22.4455 180.515L67.3729 211.827C77.0557 243.646 96.2366 274.115 122.237 295.251C122.721 295.641 123.304 295.889 123.922 295.967C124.539 296.045 125.165 295.95 125.731 295.693L167.603 276.766C205.01 283.693 242.414 285.179 278.49 271.894C279.104 271.664 279.638 271.26 280.026 270.73C280.413 270.201 280.638 269.57 280.672 268.915L283.366 216.052C308.316 189.713 327.82 156.578 332.534 120.644C332.611 120.036 332.519 119.418 332.27 118.857C332.02 118.297 331.622 117.816 331.118 117.465L286.206 86.1656Z" fill="#6EDBFF"/>
<path d="M103.021 252.713L95.0396 258.359L94.5642 266.216C94.5642 266.216 118.136 297.178 124.367 295.965C130.598 294.753 166.726 276.805 167.731 276.805C168.735 276.805 220.17 285.881 241.852 280.334C254.458 279.326 271.909 273.779 271.909 273.779L271.582 267.822L103.021 252.713Z" fill="white"/>
<path d="M94.4546 265.902L108.748 82.0671C108.889 80.2553 109.709 78.5634 111.043 77.3293C112.377 76.0951 114.127 75.4095 115.945 75.4092H250.673C252.495 75.4092 254.25 76.0988 255.585 77.3395C256.92 78.5803 257.736 80.2802 257.869 82.0979L272.047 274.115" fill="white"/>
<path d="M94.4546 265.902L108.748 82.0671C108.889 80.2553 109.709 78.5634 111.043 77.3293C112.377 76.0951 114.127 75.4095 115.945 75.4092H250.673C252.495 75.4092 254.25 76.0988 255.585 77.3395C256.92 78.5803 257.736 80.2802 257.869 82.0979L272.047 274.115" stroke="black" stroke-width="1.2" stroke-linecap="round" stroke-linejoin="round"/>
<path d="M286.206 86.1656C276.523 54.3463 257.342 23.8777 231.342 2.74178C230.856 2.35229 230.273 2.10478 229.655 2.02666C229.038 1.94855 228.411 2.04288 227.844 2.29921L185.96 21.2261C148.549 14.2988 111.134 12.7979 75.0737 26.0868C74.4594 26.3146 73.9254 26.7174 73.5376 27.2454C73.1498 27.7734 72.9252 28.4035 72.8916 29.0578C72.3644 39.2986 70.1977 81.9323 70.1977 81.9323C45.2479 108.264 25.7437 141.399 21.0254 177.333C20.9502 177.942 21.0427 178.561 21.2929 179.121C21.5431 179.682 21.9417 180.164 22.4455 180.515L67.3729 211.827C77.0557 243.646 96.2366 274.115 122.237 295.251C122.721 295.641 123.304 295.889 123.922 295.967C124.539 296.045 125.165 295.95 125.731 295.693L167.603 276.766C205.01 283.693 242.414 285.179 278.49 271.894C279.104 271.664 279.638 271.26 280.026 270.73C280.413 270.201 280.638 269.57 280.672 268.915L283.366 216.052C308.316 189.713 327.82 156.578 332.534 120.644C332.611 120.036 332.519 119.418 332.27 118.857C332.02 118.297 331.622 117.816 331.118 117.465L286.206 86.1656Z" stroke="white" stroke-width="2" stroke-miterlimit="10" stroke-linecap="round"/>
<path d="M255.711 227.121H107.493L116.345 95.71C116.473 93.8031 117.321 92.0162 118.717 90.7114C120.114 89.4065 121.954 88.6813 123.865 88.6826H242.599C244.54 88.6818 246.407 89.4307 247.809 90.773C249.212 92.1153 250.042 93.9474 250.126 95.887L255.711 227.121Z" fill="black" stroke="black" stroke-width="1.2" stroke-linecap="round" stroke-linejoin="round"/>
<path d="M256.738 251.301C256.782 252.317 256.62 253.331 256.262 254.283C255.903 255.234 255.356 256.103 254.653 256.838C253.949 257.572 253.104 258.156 252.169 258.555C251.234 258.954 250.227 259.16 249.21 259.159H113.401C112.368 259.159 111.347 258.947 110.4 258.536C109.453 258.124 108.6 257.523 107.895 256.769C107.189 256.015 106.646 255.124 106.299 254.152C105.952 253.18 105.809 252.146 105.877 251.116L107.493 227.121H255.711L256.738 251.301Z" fill="white" stroke="black" stroke-width="1.2" stroke-linecap="round" stroke-linejoin="round"/>
<path d="M244.908 233.163H198.51C196.466 233.163 194.808 234.82 194.808 236.865V249.007C194.808 251.052 196.466 252.709 198.51 252.709H244.908C246.953 252.709 248.61 251.052 248.61 249.007V236.865C248.61 234.82 246.953 233.163 244.908 233.163Z" fill="#6EDBFF" stroke="black" stroke-width="1.2" stroke-linecap="round" stroke-linejoin="round"/>
<path d="M155.411 82.6211H201.962" stroke="black" stroke-width="1.2" stroke-linecap="round" stroke-linejoin="round"/>
<path d="M165.186 100.771C165.186 100.771 161.257 114.829 162.769 126.171C164.282 137.512 168.604 144.624 168.604 144.624L186.949 142.335" fill="black"/>
<path d="M165.186 100.771C165.186 100.771 161.257 114.829 162.769 126.171C164.282 137.512 168.604 144.624 168.604 144.624L186.949 142.335" stroke="#6EDBFF" stroke-width="1.2" stroke-linecap="round" stroke-linejoin="round"/>
<path d="M208.813 84.3492C209.759 84.3492 210.525 83.5825 210.525 82.6367C210.525 81.6908 209.759 80.9241 208.813 80.9241C207.867 80.9241 207.1 81.6908 207.1 82.6367C207.1 83.5825 207.867 84.3492 208.813 84.3492Z" fill="black"/>
<path d="M220.097 189.021C220.097 189.021 227.617 198.207 230.576 208.163C233.901 219.347 233.347 227.937 233.347 227.937L251.131 227.105C251.131 227.105 252.439 212.481 249.318 196.575C246.197 180.669 241.46 173.504 241.46 173.504C241.46 173.504 232.916 172.822 226.266 179.473C219.615 186.123 220.097 189.021 220.097 189.021Z" fill="#6EDBFF" stroke="black" stroke-width="1.2" stroke-linecap="round" stroke-linejoin="round"/>
<path d="M171.532 101.964C171.532 101.964 166.495 104.939 163.474 100.12C162.605 98.7729 162.142 97.2036 162.142 95.6003C162.142 93.997 162.605 92.4276 163.474 91.0802C163.474 91.0802 164.482 95.5098 171.532 91.0802C178.583 86.6506 185.033 83.2177 195.716 91.0802C206.4 98.9427 202.163 109.334 212.038 117.843C221.913 126.352 236.418 117.843 236.418 117.843C236.418 117.843 238.635 124.131 236.418 128.565C234.945 131.388 232.964 133.916 230.576 136.023C232.009 137.347 233.736 138.314 235.614 138.844C238.635 139.648 240.232 138.844 240.232 138.844C240.232 138.844 241.844 144.082 234.59 149.928C227.336 155.773 211.014 159.599 196.705 153.753C182.397 147.907 171.532 101.964 171.532 101.964Z" fill="black" stroke="#6EDBFF" stroke-width="1.2" stroke-linecap="round" stroke-linejoin="round"/>
<path d="M145.94 185.811C145.6 183.29 144.706 180.875 143.321 178.741C141.936 176.607 140.095 174.806 137.931 173.469C131.493 169.42 127.925 169.89 127.925 169.89C127.925 169.89 134.583 153.807 157.989 140.915C180.407 128.599 203.575 131.805 219.492 144.19C235.602 156.724 241.46 173.519 241.46 173.519C241.46 173.519 237.611 173.115 228.559 179.488C225.065 182.005 222.173 185.266 220.093 189.036L215.69 182.371L215.043 227.121H158.855C158.855 227.121 155.426 205.569 154.422 194.074C153.417 182.578 153.614 178.153 153.614 178.153L145.94 185.811Z" fill="white"/>
<path d="M215.64 186.019C215.64 186.019 212.842 207.774 210.021 215.837C207.2 223.9 203.975 227.121 203.975 227.121H215.043L215.64 186.019Z" fill="#6EDBFF"/>
<path d="M233.347 176.44C233.347 176.44 229.587 161.373 222.186 151.151C214.786 140.93 207.916 137.374 207.916 137.374C207.916 137.374 223.476 144.363 229.853 153.749C234.096 160.109 237.966 166.71 241.444 173.519L233.347 176.44Z" fill="#6EDBFF"/>
<path d="M145.94 185.811C145.6 183.29 144.706 180.875 143.321 178.741C141.936 176.607 140.095 174.806 137.931 173.469C131.493 169.42 127.925 169.89 127.925 169.89C127.925 169.89 134.583 153.807 157.989 140.915C180.407 128.599 203.575 131.805 219.492 144.19C235.602 156.724 241.46 173.519 241.46 173.519C241.46 173.519 237.611 173.115 228.559 179.488C225.065 182.005 222.173 185.266 220.093 189.036L215.69 182.371L215.043 227.121H158.855C158.855 227.121 155.426 205.569 154.422 194.074C153.417 182.578 153.614 178.153 153.614 178.153L145.94 185.811Z" stroke="black" stroke-width="1.2" stroke-linecap="round" stroke-linejoin="round"/>
<path d="M169.466 106.374C169.466 106.374 168.604 104.042 166.699 105.154C164.39 106.505 166.337 111.431 168.862 112.601" fill="#6EDBFF"/>
<path d="M169.466 106.374C169.466 106.374 168.604 104.042 166.699 105.154C164.39 106.505 166.337 111.431 168.862 112.601" stroke="black" stroke-width="1.2" stroke-linecap="round" stroke-linejoin="round"/>
<path d="M194.354 106.517C194.354 106.517 197.136 102.183 199.357 104.854C201.885 107.914 195.124 111.805 195.124 111.805C195.124 111.805 193.761 114.829 193.761 120.117C193.761 125.405 195.124 133.587 193.761 137.197C192.399 140.807 190.74 144.894 182.578 144.601C174.415 144.309 174.111 133.268 173.51 128.438C172.91 123.608 172.741 121.938 171.698 120.125C170.19 117.714 169.208 115.012 168.818 112.195C168.427 109.378 168.636 106.511 169.431 103.78C171.848 95.3406 177.752 91.2574 183.263 91.1073C188.774 90.9572 192.249 95.0366 193.611 98.3617C194.974 101.687 194.354 106.517 194.354 106.517Z" fill="#6EDBFF"/>
<path d="M182.331 91.1648C178.198 93.8203 172.96 97.3224 171.94 106.212C171.224 112.47 170.89 118.404 173.16 121.541C175.431 124.677 165.806 118.847 169.435 103.772C171.94 92.7612 182.331 91.1648 182.331 91.1648Z" fill="#FEFDFD"/>
<path d="M194.354 106.517C194.354 106.517 197.136 102.183 199.357 104.854C201.885 107.914 195.124 111.805 195.124 111.805C195.124 111.805 193.761 114.829 193.761 120.117C193.761 125.405 195.124 133.587 193.761 137.197C192.399 140.807 190.74 144.894 182.578 144.601C174.415 144.309 174.111 133.268 173.51 128.438C172.91 123.608 172.741 121.938 171.698 120.125C170.19 117.714 169.208 115.012 168.818 112.195C168.427 109.378 168.636 106.511 169.431 103.78C171.848 95.3406 177.752 91.2574 183.263 91.1073C188.774 90.9572 192.249 95.0366 193.611 98.3617C194.974 101.687 194.354 106.517 194.354 106.517Z" stroke="black" stroke-width="1.2" stroke-linecap="round" stroke-linejoin="round"/>
<path d="M178.483 103.796C178.483 103.796 178.317 100.57 180.022 100.166C181.727 99.7623 182.331 103.191 182.331 103.191" fill="#6EDBFF"/>
<path d="M178.483 103.796C178.483 103.796 178.317 100.57 180.022 100.166C181.727 99.7623 182.331 103.191 182.331 103.191" stroke="black" stroke-width="1.2" stroke-linecap="round" stroke-linejoin="round"/>
<path d="M180.399 113.917C181.29 113.917 182.012 112.721 182.012 111.246C182.012 109.771 181.29 108.575 180.399 108.575C179.509 108.575 178.787 109.771 178.787 111.246C178.787 112.721 179.509 113.917 180.399 113.917Z" fill="black"/>
<path d="M153.194 167.673C153.194 167.673 153.514 172.88 153.598 178.152" stroke="black" stroke-width="1.2" stroke-linecap="round" stroke-linejoin="round"/>
<path d="M215.663 184.402C215.663 184.402 215.867 176.013 215.663 174.781" stroke="black" stroke-width="1.2" stroke-linecap="round" stroke-linejoin="round"/>
<path d="M145.94 185.811C145.94 185.811 138.339 194.443 133.563 208.063C129.565 219.474 129.518 228.629 129.518 228.629L109.268 227.121C110.236 216.068 112.543 205.174 116.137 194.678C121.983 177.952 127.925 169.89 127.925 169.89C132.281 170.234 136.416 171.946 139.74 174.781C145.49 179.753 145.94 185.811 145.94 185.811Z" fill="#6EDBFF" stroke="black" stroke-width="1.2" stroke-linecap="round" stroke-linejoin="round"/>
<path d="M233.347 222.914C233.347 222.914 227.062 226.428 225.35 229.249C223.637 232.07 226.166 233.663 228.987 232.713C230.512 232.234 231.976 231.576 233.347 230.754" fill="#6EDBFF"/>
<path d="M231.084 224.292C228.852 226.362 227.755 229.122 227.717 230.369C227.678 231.616 228.644 232.82 228.644 232.82C228.644 232.82 224.076 233.409 224.819 230.623C225.561 227.836 231.084 224.292 231.084 224.292Z" fill="#FEFDFD"/>
<path d="M233.347 222.914C233.347 222.914 227.062 226.428 225.35 229.249C223.637 232.07 226.166 233.663 228.987 232.713C230.512 232.234 231.976 231.576 233.347 230.754" stroke="black" stroke-width="1.2" stroke-linecap="round" stroke-linejoin="round"/>
<path d="M237.93 226.516C237.93 226.516 235.621 239.513 233.801 240.821C232.697 241.591 230.272 240.621 230.272 234.879C230.272 229.137 231.681 224.588 233.647 222.564C235.614 220.54 237.226 222.356 238.235 222.564C239.243 222.772 240.047 221.583 242.264 221.625C244.481 221.667 245.689 222.779 246.112 222.572C246.536 222.364 248.16 221.856 249.538 222.418C251.196 223.099 251.462 224.08 251.954 224.284C252.447 224.488 253.425 225.593 253.829 227.105C254.233 228.618 254.133 234.36 252.409 238.389C251.431 240.675 249.688 242.922 248.075 241.814C246.463 240.706 249.638 229.926 249.638 229.926C249.638 229.926 246.817 241.833 244.3 242.337C241.606 242.876 241.991 238.689 242.587 235.568C243.184 232.447 244.511 227.305 244.511 227.305C244.511 227.305 241.944 242.384 238.061 242.014C234.305 241.679 237.93 226.516 237.93 226.516Z" fill="#6EDBFF"/>
<path d="M238.235 222.579C235.691 223.264 234.255 224.55 233.347 228.933C232.439 233.317 231.758 239.174 232.366 240.891C232.974 242.607 227.747 238.012 230.884 228.714C234.02 219.416 234.294 221.825 235.745 221.637C236.203 221.602 236.664 221.669 237.094 221.831C237.525 221.994 237.914 222.25 238.235 222.579V222.579Z" fill="#FEFDFD"/>
<path d="M237.704 227.748C237.704 227.748 237.319 235.83 238.235 237.95C239.151 240.071 240.417 240.31 240.417 240.31C240.417 240.31 238.781 243.003 237.627 242.184C236.472 241.364 236.045 239.467 236.43 235.745C236.815 232.024 237.704 227.748 237.704 227.748Z" fill="#FEFDFD"/>
<path d="M237.93 226.516C237.93 226.516 235.621 239.513 233.801 240.821C232.697 241.591 230.272 240.621 230.272 234.879C230.272 229.137 231.681 224.588 233.647 222.564C235.614 220.54 237.226 222.356 238.235 222.564C239.243 222.772 240.047 221.583 242.264 221.625C244.481 221.667 245.689 222.779 246.112 222.572C246.536 222.364 248.16 221.856 249.538 222.418C251.196 223.099 251.462 224.08 251.954 224.284C252.447 224.488 253.425 225.593 253.829 227.105C254.233 228.618 254.133 234.36 252.409 238.389C251.431 240.675 249.688 242.922 248.075 241.814C246.463 240.706 249.638 229.926 249.638 229.926C249.638 229.926 246.817 241.833 244.3 242.337C241.606 242.876 241.991 238.689 242.587 235.568C243.184 232.447 244.511 227.305 244.511 227.305C244.511 227.305 241.944 242.384 238.061 242.014C234.305 241.679 237.93 226.516 237.93 226.516Z" stroke="black" stroke-width="1.2" stroke-linecap="round" stroke-linejoin="round"/>
<path d="M127.101 223.796C131.535 224.6 135.033 224.927 135.864 226.413C136.942 228.337 133.652 230.365 130.427 229.799" fill="#6EDBFF"/>
<path d="M127.101 223.796C131.535 224.6 135.033 224.927 135.864 226.413C136.942 228.337 133.652 230.365 130.427 229.799" stroke="black" stroke-width="1.2" stroke-linecap="round" stroke-linejoin="round"/>
<path d="M112.893 230.746C112.893 230.746 113.497 236.288 113.901 239.598C114.305 242.907 114.286 244.131 112.389 244.216C110.491 244.3 106.704 238.828 107.201 231.431C107.697 224.034 111.28 223.865 112.204 224.165C113.128 224.465 114.413 223.426 116.941 222.757C120.163 221.898 122.379 224.165 122.984 223.561C123.588 222.957 125.847 221.883 127.217 222.61C129.384 223.765 130.45 226.721 130.946 230.865C131.604 236.384 131.069 241.764 129.157 242.276C126.797 242.938 125.374 234.775 124.989 231.854C124.604 228.933 125.27 240.548 124.08 243.138C123.022 245.447 120.232 245.659 119.751 241.426C119.27 237.192 119.047 230.846 119.047 230.846C119.047 230.846 119.655 241.426 119.047 243.742C118.439 246.059 116.249 245.509 115.494 244.381C113.77 241.803 112.893 230.746 112.893 230.746Z" fill="#6EDBFF"/>
<path d="M112.585 224.25C112.585 224.25 109.121 225.458 109.268 232.559C109.414 239.659 110.922 243.542 110.922 243.542C110.922 243.542 107.324 240.494 107.162 233.151C107.001 225.808 110.426 223.453 111.08 223.78C111.559 224.002 112.065 224.159 112.585 224.25Z" fill="#FEFDFD"/>
<path d="M112.893 230.746C112.893 230.746 113.497 236.288 113.901 239.598C114.305 242.907 114.286 244.131 112.389 244.216C110.491 244.3 106.704 238.828 107.201 231.431C107.697 224.034 111.28 223.865 112.204 224.165C113.128 224.465 114.413 223.426 116.941 222.757C120.163 221.898 122.379 224.165 122.984 223.561C123.588 222.957 125.847 221.883 127.217 222.61C129.384 223.765 130.45 226.721 130.946 230.865C131.604 236.384 131.069 241.764 129.157 242.276C126.797 242.938 125.374 234.775 124.989 231.854C124.604 228.933 125.27 240.548 124.08 243.138C123.022 245.447 120.232 245.659 119.751 241.426C119.27 237.192 119.047 230.846 119.047 230.846C119.047 230.846 119.655 241.426 119.047 243.742C118.439 246.059 116.249 245.509 115.494 244.381C113.77 241.803 112.893 230.746 112.893 230.746Z" stroke="black" stroke-width="1.2" stroke-linecap="round" stroke-linejoin="round"/>
<path d="M312.472 147.561L263.704 133.133C260.24 132.109 255.687 127.625 256.988 121.537L273.729 76.2594C273.972 75.438 274.374 74.6724 274.913 74.0065C275.452 73.3406 276.117 72.7874 276.869 72.3785C277.622 71.9697 278.448 71.7131 279.3 71.6236C280.152 71.5341 281.013 71.6133 281.834 71.8568L329.494 82.3631C333.381 83.9949 336.213 89.2058 335.005 94.3897L320.577 143.154C320.082 144.81 318.952 146.203 317.433 147.029C315.915 147.855 314.131 148.046 312.472 147.561Z" fill="black" stroke="black" stroke-width="1.2" stroke-linecap="round" stroke-linejoin="round"/>
<path d="M330.671 82.4229L277.33 66.6429C275.139 65.9947 272.837 67.2454 272.189 69.4364L256.409 122.777C255.761 124.968 257.012 127.27 259.203 127.918L312.544 143.698C314.735 144.346 317.036 143.096 317.684 140.905L333.464 87.5637C334.113 85.3727 332.862 83.0711 330.671 82.4229Z" fill="white" stroke="black" stroke-width="1.2" stroke-linecap="round" stroke-linejoin="round"/>
<path d="M307.546 127.037C304.425 128.522 301.192 128.472 297.925 127.652C291.767 126.113 285.681 124.345 279.667 122.349C277.239 121.545 275.026 120.325 273.321 118.389C271.884 116.763 270.941 114.76 270.604 112.616C270.219 110.307 270.554 108.06 271.089 105.816C271.697 103.249 272.467 100.728 273.171 98.1884C274.16 94.9557 275.038 91.6844 276.138 88.4863C276.908 86.2696 277.847 84.1529 279.479 82.425C282.211 79.5347 285.609 78.4264 289.527 78.7727C291.612 79.0239 293.669 79.471 295.669 80.1082C300.545 81.4936 305.445 82.829 310.248 84.4608C312.711 85.2959 314.993 86.4197 316.79 88.3632C319.13 90.8647 320.073 93.8396 319.911 97.2147C319.803 99.4815 319.203 101.66 318.591 103.819C317.198 108.76 315.832 113.709 314.188 118.578C313.536 120.654 312.49 122.587 311.11 124.27C310.099 125.4 308.892 126.338 307.546 127.037ZM277.759 98.1345C276.781 101.433 275.727 104.712 275.092 108.102C274.58 110.796 274.991 113.325 276.943 115.414C278.259 116.823 279.975 117.573 281.761 118.177C286.456 119.771 291.236 121.075 296 122.442C297.694 122.967 299.428 123.353 301.184 123.596C303.493 123.862 305.572 123.384 307.38 121.88C308.947 120.544 309.774 118.755 310.421 116.877C312.056 112.093 313.376 107.217 314.754 102.356C315.266 100.54 315.789 98.7118 315.909 96.8106C316.043 94.6208 315.524 92.6273 313.984 91.0379C312.645 89.6332 310.948 88.7711 309.112 88.1477C306.287 87.1933 303.432 86.3543 300.565 85.5422C297.486 84.6648 294.407 83.6757 291.251 83.0369C289.712 82.7251 288.196 82.5173 286.66 82.856C283.739 83.4987 281.988 85.473 280.922 88.14C279.621 91.3766 278.725 94.7671 277.774 98.1345H277.759Z" fill="#6EDBFF"/>
<path d="M302.747 112.085C301.058 113.492 299.008 114.395 296.83 114.692C294.652 114.989 292.435 114.667 290.432 113.763C288.768 113.057 287.317 111.929 286.221 110.492C284.336 108.096 283.467 105.056 283.801 102.025C283.911 101.109 284.114 100.206 284.409 99.3314C285.174 97.2441 286.524 95.4207 288.296 94.0782C289.442 93.21 290.737 92.5579 292.117 92.1539C294.329 91.5062 296.688 91.5654 298.864 92.3233C300.357 92.8148 301.733 93.606 302.91 94.6484C304.086 95.6907 305.037 96.9623 305.705 98.3851C306.373 99.808 306.743 101.352 306.793 102.923C306.842 104.494 306.571 106.059 305.995 107.521C305.291 109.279 304.178 110.844 302.747 112.085V112.085ZM288.042 101.229C286.679 105.204 289.092 109.638 293.237 110.719C294.415 111.063 295.66 111.101 296.856 110.827C298.052 110.554 299.158 109.978 300.068 109.157C300.828 108.542 301.454 107.778 301.905 106.911C302.357 106.044 302.625 105.094 302.693 104.119C303.078 100.297 300.407 96.8068 296.508 96.0371C294.707 95.7179 292.85 96.0699 291.29 97.0264C289.73 97.983 288.574 99.478 288.042 101.229Z" fill="#6EDBFF"/>
<path d="M312.745 96.014C312.55 96.6999 312.091 97.2802 311.468 97.6279C310.845 97.9757 310.11 98.0624 309.424 97.869C308.73 97.667 308.143 97.1979 307.794 96.5645C307.445 95.9311 307.361 95.1851 307.561 94.49C307.765 93.8026 308.234 93.2244 308.865 92.8827C309.495 92.5409 310.236 92.4636 310.923 92.6678C311.61 92.8719 312.189 93.3408 312.53 93.9712C312.872 94.6016 312.949 95.342 312.745 96.0294V96.014Z" fill="#6EDBFF"/>
<path d="M282.223 84.457L236.426 103.43C233.178 104.773 227.316 104.004 225.65 100.136L209.121 54.1732C208.476 52.614 208.476 50.8626 209.122 49.3039C209.768 47.7452 211.006 46.5066 212.565 45.8605L255.864 24.9554C259.113 23.6085 264.431 25.6597 266.69 30.3433L285.663 76.1404C285.984 76.9123 286.15 77.7399 286.151 78.5759C286.152 79.4119 285.988 80.2398 285.668 81.0123C285.348 81.7848 284.88 82.4866 284.288 83.0777C283.697 83.6688 282.995 84.1375 282.223 84.457V84.457Z" fill="black" stroke="#6EDBFF" stroke-width="1.2" stroke-linecap="round" stroke-linejoin="round"/>
<path d="M255.985 24.0053L206.058 44.6755C203.947 45.5495 202.944 47.9694 203.818 50.0805L224.488 100.008C225.362 102.119 227.782 103.122 229.893 102.248L279.82 81.5773C281.931 80.7033 282.934 78.2833 282.06 76.1722L261.39 26.2452C260.516 24.1341 258.096 23.1312 255.985 24.0053Z" fill="#6EDBFF" stroke="black" stroke-width="1.2" stroke-linecap="round" stroke-linejoin="round"/>
<path d="M319.915 206.277L269.969 185.672C264.781 183.894 260.675 181.123 263.561 173.807L283.289 135.211C284.528 132.205 288.4 130.954 291.94 132.417L341.751 149.577C345.292 151.04 348.132 156.162 346.054 161.123L328.574 203.483C327.327 206.489 323.456 207.74 319.915 206.277Z" fill="black" stroke="black" stroke-width="1.2" stroke-linecap="round" stroke-linejoin="round"/>
<path d="M343.795 157.078L331.233 187.516L268.218 162.243L281.033 131.181C281.35 130.408 281.817 129.705 282.406 129.112C282.995 128.519 283.696 128.048 284.467 127.726C285.239 127.404 286.066 127.238 286.902 127.237C287.738 127.235 288.566 127.399 289.339 127.718L340.339 148.758C341.112 149.076 341.816 149.545 342.408 150.135C343.001 150.726 343.471 151.428 343.792 152.201C344.113 152.974 344.279 153.802 344.279 154.639C344.279 155.476 344.115 156.305 343.795 157.078V157.078Z" fill="#6EDBFF" stroke="black" stroke-width="1.2" stroke-linecap="round" stroke-linejoin="round"/>
<path d="M331.233 187.512L326.677 198.561C326.033 200.122 324.796 201.364 323.238 202.014C321.679 202.663 319.926 202.667 318.364 202.025L267.383 180.977C266.609 180.66 265.906 180.194 265.313 179.605C264.72 179.015 264.249 178.315 263.928 177.543C263.606 176.772 263.44 175.944 263.438 175.109C263.437 174.273 263.6 173.445 263.919 172.672L268.226 162.239L331.233 187.512Z" fill="white" stroke="black" stroke-width="1.2" stroke-linecap="round" stroke-linejoin="round"/>
<path d="M304.406 182.898L301.712 188.524C301.601 188.755 301.539 189.007 301.529 189.263C301.519 189.519 301.563 189.774 301.656 190.013C301.75 190.252 301.892 190.469 302.073 190.65C302.254 190.832 302.47 190.974 302.708 191.068L319.576 197.68C320.028 197.856 320.53 197.849 320.976 197.662C321.423 197.474 321.779 197.121 321.97 196.675L324.31 191.172C324.407 190.945 324.458 190.701 324.459 190.454C324.461 190.207 324.414 189.962 324.32 189.733C324.226 189.505 324.088 189.297 323.913 189.123C323.738 188.948 323.53 188.81 323.302 188.717L306.807 181.982C306.366 181.797 305.87 181.789 305.423 181.959C304.976 182.13 304.612 182.466 304.406 182.898V182.898Z" fill="#6EDBFF"/>
<path d="M68.1388 152.845L126.724 125.447C132.824 123.038 137.581 119.498 133.725 110.908L108.005 65.8457C106.358 62.3243 101.659 61.0428 97.5105 62.9863L38.8979 86.2658C34.7492 88.1901 31.6358 94.49 34.3951 100.282L57.64 149.981C59.2911 153.503 63.9901 154.769 68.1388 152.845Z" fill="black" stroke="#6EDBFF" stroke-width="1.2" stroke-linecap="round" stroke-linejoin="round"/>
<path d="M36.8581 95.3329L53.5606 131.035L127.509 97.3303L110.472 60.9004C110.048 59.995 109.45 59.1819 108.712 58.5077C107.974 57.8335 107.111 57.3114 106.171 56.9711C105.231 56.6309 104.233 56.4792 103.234 56.5248C102.236 56.5703 101.256 56.8122 100.351 57.2366L40.545 85.2075C38.7134 86.0614 37.2961 87.6078 36.6047 89.5067C35.9133 91.4055 36.0044 93.5013 36.8581 95.3329V95.3329Z" fill="white" stroke="black" stroke-width="1.2" stroke-linecap="round" stroke-linejoin="round"/>
<path d="M53.5721 131.035L59.6297 143.993C60.4878 145.821 62.0365 147.235 63.9356 147.922C65.8347 148.61 67.9291 148.516 69.7589 147.661L129.576 119.682C130.482 119.259 131.295 118.661 131.97 117.923C132.644 117.185 133.167 116.321 133.508 115.381C133.848 114.441 134 113.443 133.955 112.445C133.91 111.446 133.668 110.466 133.244 109.56L127.521 97.3223L53.5721 131.035Z" fill="#6EDBFF" stroke="black" stroke-width="1.2" stroke-linecap="round" stroke-linejoin="round"/>
<path d="M125.374 105.558L128.837 111.931C128.979 112.193 129.065 112.481 129.091 112.777C129.116 113.074 129.079 113.372 128.983 113.654C128.888 113.935 128.735 114.194 128.534 114.414C128.333 114.633 128.089 114.809 127.817 114.929L108.64 123.488C108.127 123.718 107.545 123.739 107.017 123.545C106.49 123.352 106.058 122.96 105.816 122.453L102.806 116.203C102.682 115.945 102.611 115.665 102.596 115.38C102.581 115.094 102.623 114.808 102.72 114.539C102.817 114.27 102.966 114.022 103.159 113.811C103.352 113.6 103.585 113.429 103.845 113.309L122.587 104.623C123.084 104.399 123.647 104.371 124.164 104.545C124.68 104.718 125.112 105.08 125.374 105.558V105.558Z" fill="white"/>
<path d="M82.2051 101.363L128.068 89.1482C131.32 88.2823 135.691 84.2145 134.633 78.4994L120.17 35.8196C119.754 34.2586 118.735 32.9267 117.337 32.1169C115.939 31.3072 114.277 31.0858 112.716 31.5016L67.9849 40.0838C64.3172 41.5077 61.5386 46.2952 62.5354 51.1636L74.7544 97.0415C74.9595 97.8146 75.315 98.5398 75.8006 99.1755C76.2861 99.8112 76.8922 100.345 77.5841 100.746C78.2761 101.148 79.0403 101.409 79.8332 101.515C80.6261 101.621 81.4321 101.569 82.2051 101.363V101.363Z" fill="black" stroke="black" stroke-width="1.2" stroke-linecap="round" stroke-linejoin="round"/>
<path d="M82.4998 97.6878L132.151 84.4673C134.359 83.8794 135.672 81.6129 135.084 79.405L121.864 29.7537C121.276 27.5457 119.01 26.2324 116.802 26.8203L67.1503 40.0408C64.9424 40.6287 63.6291 42.8952 64.217 45.1031L77.4374 94.7544C78.0253 96.9624 80.2918 98.2757 82.4998 97.6878Z" fill="#6EDBFF" stroke="black" stroke-width="1.2" stroke-linecap="round" stroke-linejoin="round"/>
<path d="M116.522 56.5552C116.58 57.0094 116.637 57.4173 116.687 57.8291C116.859 59.2145 117.03 60.6026 117.199 61.9932C117.319 62.9707 117.43 63.9482 117.557 64.9257C117.58 65.1143 117.48 65.1412 117.346 65.1759L115.872 65.5607L110.868 66.8423C110.511 66.9346 110.511 66.9346 110.603 67.3041C112.332 74.0621 114.061 80.82 115.791 87.578C115.937 88.1552 115.91 88.0398 115.456 88.1591L107.732 90.1141C107.347 90.2142 107.347 90.2142 107.239 89.8216C105.515 83.0842 103.79 76.3442 102.063 69.6016C101.913 69.009 101.994 69.0936 101.44 69.2168C99.3512 69.7479 97.2602 70.2841 95.1666 70.8255C94.9165 70.8909 94.8164 70.8524 94.751 70.5869C94.1096 68.0392 93.4566 65.4927 92.7921 62.9476C92.719 62.6628 92.7921 62.5897 93.0577 62.5243C95.2128 61.9816 97.368 61.4236 99.5231 60.881C99.7617 60.8194 99.8079 60.7309 99.7463 60.4961C99.3038 58.8066 98.8804 57.1171 98.4456 55.4276C98.0265 53.9747 97.8065 52.4716 97.7913 50.9595C97.7538 48.5146 98.6577 46.1488 100.316 44.3517C101.345 43.2655 102.592 42.4091 103.976 41.8386C105.435 41.2619 106.949 40.8339 108.494 40.5609C109.522 40.3492 110.553 40.153 111.573 39.9528C111.808 39.9066 112.046 39.8836 112.281 39.8374C112.516 39.7912 112.589 39.8797 112.643 40.0914C113.093 41.8925 113.555 43.6859 114.017 45.4793C114.14 45.9642 114.251 46.4491 114.401 46.9263C114.471 47.1649 114.401 47.2534 114.174 47.3112C112.635 47.696 111.061 48.1001 109.51 48.5157C108.874 48.6802 108.282 48.981 107.774 49.397C107.38 49.7222 107.083 50.1494 106.915 50.6319C106.748 51.1145 106.716 51.6339 106.824 52.1333C106.92 52.7991 107.082 53.4534 107.243 54.1076C107.586 55.4931 107.955 56.8747 108.298 58.264C108.363 58.5411 108.463 58.5834 108.733 58.5141C111.208 57.8727 113.684 57.2377 116.16 56.6091L116.522 56.5552Z" fill="white"/>
<path d="M90.6525 138.79L96.5099 136.262L95.1475 132.175L87.235 135.58C88.0855 134.499 88.7744 133.541 89.3748 132.671L93 130.727L91.6377 126.64C89.0092 128.06 86.346 129.569 83.602 130.92C83.2621 131.059 82.8958 131.12 82.5293 131.101C82.1627 131.082 81.805 130.982 81.4815 130.808C77.2135 127.876 72.7146 127.068 67.6577 128.468C60.2878 130.508 55.05 138.859 56.3585 146.044C56.5548 147.126 56.7703 148.203 56.9666 149.223C43.7508 150.162 32.417 145.81 22.638 137.02C19.7016 145.067 22.3686 152.598 29.0573 157.682L23.1575 156.693C23.2499 163.571 29.8924 169.659 36.3309 170.821L30.385 171.591L31.7474 175.678L33.079 175.536C34.1601 176.832 35.4795 177.91 36.9659 178.711C39.8015 180.312 43.0201 181.11 46.2754 181.02C43.0389 183.941 39.9062 186.357 36.0962 187.724C32.3747 189.059 28.6263 190.318 24.5238 190.333L25.8861 194.416L35.1918 193.877C39.7209 194.822 44.3749 195.01 48.9656 194.435C54.8553 193.657 60.5563 191.823 65.795 189.021C70.2084 186.65 74.1543 183.497 77.4406 179.715C82.1627 174.327 85.33 168.058 87.1811 161.081C88.7069 155.573 89.1229 149.817 88.4049 144.147C88.1086 141.927 88.9553 140.684 90.3061 139.179C90.4254 139.067 90.537 138.925 90.6525 138.79Z" fill="black" stroke="black" stroke-width="1.2" stroke-linecap="round" stroke-linejoin="round"/>
<path d="M37.6933 174.916C31.2548 173.761 24.6084 167.661 24.5199 160.788L30.4312 161.765C23.7463 156.693 21.0793 149.15 24.0158 141.107C33.7948 149.893 45.1286 154.249 58.3443 153.306C58.1481 152.29 57.9325 151.213 57.7363 150.131C56.4278 142.939 61.6617 134.591 69.0354 132.551C74.0885 131.154 78.5913 131.963 82.8593 134.891C83.1827 135.065 83.5402 135.165 83.9067 135.185C84.2731 135.205 84.6394 135.144 84.9798 135.007C87.7199 133.656 90.3869 132.147 93.0154 130.727C93.0731 133.148 91.8609 135.53 88.6127 139.664L96.5099 136.261C94.7703 138.832 93.4311 141.264 91.6531 143.285C90.2984 144.824 89.4556 146.033 89.7519 148.257C90.4698 153.927 90.0538 159.683 88.5281 165.191C86.677 172.168 83.525 178.437 78.7875 183.825C75.4998 187.607 71.5526 190.76 67.1381 193.131C61.9045 195.927 56.2104 197.759 50.3279 198.538C44.4089 199.35 38.6131 198.622 32.8981 197.164C30.4768 196.487 28.1281 195.573 25.8861 194.435C29.9886 194.435 33.7332 193.161 37.4547 191.826C41.2647 190.46 44.4012 188.043 47.6378 185.122C44.1087 185.245 41.1377 184.321 38.3283 182.813C35.3958 181.273 33.4946 178.772 31.7474 175.693L37.6933 174.916Z" fill="#6EDBFF" stroke="black" stroke-width="1.2" stroke-linecap="round" stroke-linejoin="round"/>
<path d="M171.94 120.563C171.94 120.563 174.634 124.685 180.996 124.293C186.58 123.95 189.078 119.009 189.078 119.009C189.078 119.009 186.884 126.24 180.996 126.917C176.143 127.475 171.94 120.563 171.94 120.563Z" fill="black" stroke="black" stroke-width="1.2" stroke-linecap="round" stroke-linejoin="round"/>
<path d="M243.761 60.9504C244.046 59.4834 244.725 58.1213 245.724 57.0096C246.951 55.5561 248.505 54.4129 250.257 53.6729C251.674 53.0326 253.177 52.6009 254.718 52.3914C257.773 52.0296 260.221 53.1264 262.134 55.4971C262.95 56.4824 263.63 57.5722 264.158 58.7376C265.243 61.2237 266.303 63.7214 267.337 66.2306C268.557 69.1785 269.738 72.1419 270.939 75.0821C271.124 75.5439 271.124 75.5439 270.65 75.7364L263.839 78.4996C263.315 78.7112 263.315 78.7112 263.107 78.1994C261.414 74.0276 259.722 69.8546 258.031 65.6802C257.595 64.5266 256.942 63.4671 256.107 62.5591C255.002 61.4046 253.698 60.6733 252.058 61.0197C249.153 61.6085 246.878 63.8214 247.34 67.362C247.458 68.312 247.692 69.2439 248.037 70.1368C249.657 74.2431 251.335 78.3264 252.994 82.4173C253.167 82.8484 253.167 82.8484 252.728 83.0293L245.824 85.8271C245.397 86.0003 245.393 86.0003 245.227 85.5924C241.856 77.2745 238.481 68.9592 235.102 60.6464C234.983 60.3462 234.998 60.2192 235.325 60.0884C237.532 59.2109 239.732 58.3129 241.925 57.3944C242.199 57.2828 242.31 57.3175 242.437 57.6061C242.841 58.7029 243.284 59.7728 243.761 60.9504Z" fill="white"/>
<path d="M235.106 75.1784C236.786 79.3322 238.471 83.4847 240.159 87.6359C240.324 88.0477 240.324 88.0516 239.905 88.2209C237.596 89.1638 235.26 90.099 232.943 91.0534C232.639 91.1766 232.512 91.1381 232.385 90.8225C229.019 82.4918 225.642 74.1662 222.255 65.8458C222.132 65.5456 222.159 65.4186 222.483 65.2877C224.83 64.3538 227.171 63.4045 229.506 62.4398C229.799 62.3205 229.914 62.359 230.033 62.6592C231.719 66.8335 233.41 71.0066 235.106 75.1784Z" fill="white"/>
<path d="M227.236 52.9802C227.756 54.2693 227.743 55.7124 227.2 56.992C226.656 58.2717 225.627 59.283 224.338 59.8035C223.049 60.3241 221.605 60.3112 220.326 59.7678C219.046 59.2243 218.035 58.1948 217.514 56.9056C217.257 56.2673 217.127 55.5845 217.133 54.8961C217.139 54.2078 217.281 53.5274 217.55 52.8938C217.819 52.2602 218.21 51.6857 218.702 51.2033C219.193 50.7209 219.774 50.34 220.412 50.0822C221.05 49.8245 221.733 49.695 222.422 49.7011C223.11 49.7073 223.79 49.8489 224.424 50.118C225.058 50.3871 225.632 50.7784 226.114 51.2695C226.597 51.7606 226.978 52.3419 227.236 52.9802V52.9802Z" fill="white"/>
<path d="M140.225 96.1872C138.892 95.9784 137.615 95.5005 136.472 94.7826C135.33 94.0648 134.345 93.122 133.578 92.0116C132.776 90.9222 132.211 89.6772 131.918 88.3563C131.625 87.0355 131.611 85.668 131.877 84.3416C132.075 83.0243 132.547 81.7632 133.263 80.64C133.979 79.5169 134.923 78.5569 136.034 77.8222C138.24 76.2775 140.967 75.6682 143.621 76.1275C146.274 76.5869 148.638 78.0774 150.196 80.2737C151.016 81.3354 151.605 82.5562 151.926 83.8582C152.248 85.1602 152.294 86.515 152.063 87.836C151.746 89.6371 150.934 91.3146 149.719 92.6813C148.543 94.0185 147.058 95.0488 145.393 95.6831C143.749 96.3217 141.961 96.4961 140.225 96.1872V96.1872ZM163.293 22.9658L152.632 73.381L136.199 70.537L143.127 19.4636L163.293 22.9658Z" fill="black" stroke="#6EDBFF" stroke-width="1.2" stroke-linecap="round" stroke-linejoin="round"/>
<path d="M137.973 92.5234C136.64 92.313 135.364 91.8341 134.221 91.1156C133.079 90.3972 132.094 89.4543 131.327 88.3439C130.526 87.2556 129.96 86.0118 129.667 84.6924C129.375 83.3729 129.36 82.0068 129.626 80.6816C129.824 79.3644 130.296 78.1035 131.012 76.9805C131.728 75.8574 132.672 74.8973 133.782 74.1622C135.988 72.6175 138.716 72.0083 141.369 72.4676C144.023 72.9269 146.387 74.4174 147.945 76.6137C148.764 77.6754 149.353 78.8962 149.675 80.1982C149.996 81.5003 150.043 82.855 149.811 84.176C149.494 85.9782 148.683 87.6569 147.468 89.0251C146.293 90.3658 144.81 91.4001 143.146 92.0385C141.499 92.6714 139.709 92.8391 137.973 92.5234ZM161.064 19.3019L150.389 69.7172L133.952 66.8693L140.879 15.7998L161.064 19.3019Z" fill="#6EDBFF" stroke="black" stroke-width="1.2" stroke-linecap="round" stroke-linejoin="round"/>
<path d="M133.559 67.4082L136.988 69.9636L137.492 67.7122L133.559 67.4082Z" fill="black"/>
<path d="M161.638 19.0481L162.527 23.4469L160.025 24.1166L161.638 19.0481Z" fill="black"/>
</svg>
